<svg xmlns="http://www.w3.org/2000/svg" width="64" height="64" viewBox="0 0 64 64">
    <g fill="none" fill-rule="evenodd" stroke="#000" stroke-linecap="round" stroke-width="2">
        <path d="M31.618 62.463c-6.608-6.98-13.292-14.096-17.488-22.39-4.196-8.296-5.636-18.08-1.508-26.133C16.748 5.888 27.409.445 37.092 3.176c7.408 2.089 12.83 8.462 14.45 15.228 1.622 6.766-.114 13.792-3.386 19.902-3.27 6.108-8.004 11.45-12.699 16.737"/>
        <path d="M34.57 29.811c-4.23 1.959-9.925-1.51-10.105-6.153-.18-4.644 5.229-8.54 9.598-6.912 3.183 1.186 4.853 4.948 4.289 8.212"/>
    </g>
</svg>
