<svg xmlns="http://www.w3.org/2000/svg" width="107" height="58" viewBox="0 0 107 58">
    <path fill="#202020" d="M22.276 8.816c1.664 0 5.2-.156 6.916-.156.572-.26 1.092-.988 1.092-1.456 0-.572-1.612-1.3-2.86-1.196-1.508.104-3.38.832-4.888.832-1.3 0-2.652-.156-3.744-.572l-.728.728c.572.832 2.392 1.82 4.212 1.82zM9.536 27.12c7.592-1.976 18.668-7.124 23.296-10.296 1.144-.78 2.08-1.56 2.08-2.236 0-1.04-2.704-2.808-4.004-2.808-2.34 0-10.764 1.196-13.624 1.196-1.04 0-2.34-.26-3.38-.728l-.78.78c.676.936 2.392 1.976 3.952 2.028 1.924.052 11.284-1.248 13.468-1.248 1.248 0 1.82.156.364 1.248C26.8 18.124 16.348 23.74 8.652 26.08l.884 1.04zM39.8 24.156c-.416-1.144-2.184-1.664-3.744-2.08-1.508-.416-4.16-1.04-6.916-1.924l-1.82.78c3.588 1.144 9.932 3.432 10.66 5.044 1.092.104 2.184-.78 1.82-1.82zM25.344 43.708c.468-.936 1.508-3.172 1.508-6.968v-5.2c6.136-.26 11.596-.312 13.364-.208 1.82.104 3.848.416 4.576.78 1.456.156 2.34-.468 2.392-1.248.052-.624-.624-1.196-1.924-1.456-1.456-.312-3.432-.26-5.512-.208l-14.82.676c-4.68.208-16.276.78-17.42.728-1.716-.052-3.484-.572-4.732-1.248l-.78.624c.936 1.404 3.588 3.068 5.928 2.86 2.028-.208 10.244-.884 16.432-1.196v12.064h.988zm13.832 6.448c.52-.26 1.04-1.196.312-1.82-.884-.78-2.496-1.144-4.888-.52-.78.208-3.016.676-4.68.676l-10.14.156c-1.924.052-2.08-.572-2.08-2.08l.052-3.432c0-.78.104-1.352.104-2.288 0-2.392-4.16-2.288-6.864-2.08l-.208.832c3.016.468 4.524.936 4.524 1.976l-.052 5.044c0 2.08 1.664 3.796 4.732 3.796l.212-.001c2.16-.013 18.232-.16 18.976-.259zm15.564-31.46c1.196 0 2.132-.936 2.132-2.08 0-1.248-.936-2.184-2.132-2.184-1.248 0-2.184.936-2.184 2.184 0 1.144.936 2.08 2.184 2.08zm-1.144 29.588c1.248-.936 2.444-2.86 2.964-5.044.416-1.664.624-4.056-1.144-4.836-.884-.416-2.184-.208-2.756.728-.624.936-.312 1.924.104 2.444.364.468 1.04.78 1.664.832.936.52-.26 4.264-1.404 5.408l.572.468zM68.172 33.36c2.288-.208 12.376-1.04 18.616-1.3s11.856-.312 13.676-.208c1.82.104 3.848.416 4.576.78 1.456.156 2.34-.468 2.392-1.248.052-.624-.624-1.196-1.924-1.456-1.456-.312-3.432-.26-5.512-.208l-13.78.624c.26-1.404.416-3.484.416-4.524v-1.768l4.212-.156c.676-.052 1.3 0 1.768.052v1.768l.728.156c1.04-.572 1.612-1.976 1.612-3.224l.104-9.516c0-1.612.104-2.756.104-3.952 0-1.82-3.952-2.86-6.292-3.016l-.416.884c1.872.676 3.328 1.716 3.796 2.392.364.52.364 1.508.364 2.704v3.224c-.208-.572-1.04-1.04-1.976-.988-.78.052-1.404.26-2.184.312l-7.54.26c-.572 0-1.248-.156-1.768-.364l-.416.468c.156.832 1.04 1.768 2.184 1.716l8.996-.364c.832-.052 1.872 0 2.288.208.208-.052.364-.208.416-.468v5.98c-.208-.052-.416-.052-.624-.052-.728 0-1.82.208-2.6.208l-10.192.312c-.416 0-.884-.052-1.3-.156v-7.592c0-1.56.104-2.444.104-3.64 0-1.872-3.588-2.288-5.772-2.288l-.416.936c2.028.572 3.744 1.248 3.744 2.6l.208 13.832.676.156c.832-.468 1.3-1.456 1.404-2.444.364.208.832.312 1.3.312l5.148-.208v6.344c-5.096.208-15.444.728-16.536.676-1.716-.052-3.484-.572-4.732-1.248l-.78.624c.936 1.404 3.588 3.068 5.928 2.86zm11.596 17.576l15.808-.208c1.248 0 1.144-1.976-.26-2.34-.52-.104-.936-.104-1.3 0 .832-2.08 2.08-6.656 2.236-8.216.104-1.092-3.12-3.38-4.524-3.38-2.704 0-10.816.832-12.844 1.352l.208 1.352c2.34-.156 9.932-.52 12.272-.364 1.352.104 1.976.52 1.924 1.612-.052 1.196-.676 6.136-.988 8.06-2.6 0-9.88.26-10.66.26-1.04 0-2.08.52-2.184 1.04l.312.832zm-2.496 1.248c.624 0 1.612-1.924 1.508-4.108-.104-2.34-.572-6.916-.832-8.58-.26-1.82-2.548-2.548-4.368-2.288l-.416.728c1.248.364 2.08.988 2.34 2.496.312 1.664 1.04 7.852 1.196 10.452.052.884.104 1.3.572 1.3z"/>
</svg>
